<?xml version="1.0" encoding="UTF-8" standalone="no"?>
<!-- Created with Inkscape (http://www.inkscape.org/) -->

<svg
   xmlns:dc="http://purl.org/dc/elements/1.1/"
   xmlns:cc="http://creativecommons.org/ns#"
   xmlns:rdf="http://www.w3.org/1999/02/22-rdf-syntax-ns#"
   xmlns:svg="http://www.w3.org/2000/svg"
   xmlns="http://www.w3.org/2000/svg"
   xmlns:sodipodi="http://sodipodi.sourceforge.net/DTD/sodipodi-0.dtd"
   xmlns:inkscape="http://www.inkscape.org/namespaces/inkscape"
   width="744.09448819"
   height="1052.3622047"
   id="svg2"
   version="1.1"
   inkscape:version="0.48.3.1 r9886"
   sodipodi:docname="jellyfishing.svg">
  <defs
     id="defs4" />
  <sodipodi:namedview
     id="base"
     pagecolor="#ffffff"
     bordercolor="#666666"
     borderopacity="1.0"
     inkscape:pageopacity="0.0"
     inkscape:pageshadow="2"
     inkscape:zoom="1.4"
     inkscape:cx="339.61534"
     inkscape:cy="574.8155"
     inkscape:document-units="px"
     inkscape:current-layer="layer1"
     showgrid="false"
     inkscape:window-width="472"
     inkscape:window-height="383"
     inkscape:window-x="2481"
     inkscape:window-y="231"
     inkscape:window-maximized="0" />
  <metadata
     id="metadata7">
    <rdf:RDF>
      <cc:Work
         rdf:about="">
        <dc:format>image/svg+xml</dc:format>
        <dc:type
           rdf:resource="http://purl.org/dc/dcmitype/StillImage" />
        <dc:title></dc:title>
      </cc:Work>
    </rdf:RDF>
  </metadata>
  <g
     inkscape:label="Layer 1"
     inkscape:groupmode="layer"
     id="layer1">
    <path
       style="fill:#1a1a1a"
       id="path2997"
       d="m 344.14493,380.52171 c -2.19425,-1.54164 -4.36438,-3.11294 -6.60013,-4.59474 -2.03658,-1.26631 -3.93376,-2.70889 -5.7903,-4.2218 -1.4648,-1.14531 -3.04386,-2.10836 -4.69922,-2.94753 -1.8066,-0.5978 -3.60743,-1.20361 -5.39976,-1.84552 -1.55658,-0.5522 -3.20864,-0.63818 -4.84305,-0.70431 -1.51397,-0.0412 -3.02874,-0.0275 -4.54307,-0.0215 -1.70616,0.0658 -3.43232,-0.15131 -5.12035,0.13494 -0.95178,0.13234 -1.82592,0.51622 -2.64231,0.9967 -0.18279,0.10758 -0.74394,0.4077 -0.56011,0.3019 2.86695,-1.65008 5.7398,-3.28989 8.6097,-4.93484 -0.92896,0.5358 -1.58493,1.30781 -2.16281,2.19319 -0.54422,1.14327 -0.9077,2.35663 -1.13873,3.59865 -0.21355,1.38901 -0.2284,2.79741 -0.24402,4.19951 -0.008,1.42946 -0.002,2.85895 0.001,4.28841 -0.0739,1.31236 0.0261,2.5831 0.28478,3.86643 0.30584,1.27367 0.87735,2.43791 1.50524,3.57635 0.73238,1.14165 1.67616,2.10047 2.57508,3.10821 1.04024,1.37165 2.44203,2.33538 3.76555,3.39558 1.15934,0.80936 2.48208,1.32157 3.68366,2.06344 1.22699,0.67287 2.50051,1.24025 3.75529,1.85627 1.39651,0.50299 2.77029,1.07089 4.17638,1.5518 1.90044,0.61073 3.88441,0.88202 5.80808,1.38681 1.44034,0.33722 2.87677,0.58145 4.24257,1.16801 3.24107,3.39444 -6.36871,5.06958 -8.98288,6.5363 -0.19979,0.1121 -1.60966,0.0385 -1.88657,0.0402 -1.41121,-0.003 -2.82236,-0.0164 -4.23356,-0.0235 -1.20696,0.27886 -2.43208,0.50885 -3.4883,1.18012 1.38118,-0.96733 -3.5245,1.91659 -2.09115,1.08735 9.38849,-5.4316 11.3395,-6.66099 8.01187,-4.58068 -1.25975,0.74849 -2.33029,1.70641 -3.27044,2.82302 -1.06497,1.24058 -1.92603,2.62908 -2.73182,4.04599 -0.77552,1.404 -1.48961,2.8407 -2.20636,4.27524 -0.82438,1.62377 -1.39204,3.36013 -1.87841,5.11023 -0.49664,1.54847 -0.92883,3.10465 -1.1557,4.71612 -0.31425,1.67642 -0.59718,3.35252 -0.75807,5.05106 -0.0922,1.87523 -0.20227,3.76075 -0.0764,5.63611 0.14846,1.53447 0.48897,3.05085 1.53632,4.21919 1.05148,0.90677 2.3261,1.35362 3.63991,1.74567 2.04886,0.46538 4.15942,0.52941 6.2514,0.58446 1.69558,0.0311 3.39153,0.0174 5.08725,0.01 1.43172,0.0489 2.87612,-0.17166 4.23137,-0.63637 1.60614,-0.5575 3.09198,-1.33622 4.58123,-2.13678 9.23113,-4.75958 -29.22785,16.64426 2.59148,-1.36335 4.5668,-2.58451 -30.04474,17.23199 1.36,-0.75641 -15.86168,8.78753 -8.9189,5.95644 -6.21204,3.0085 0.76119,-0.93583 1.54689,-1.85315 2.1998,-2.87025 2.34793,-3.88496 7.81061,-9.1049 12.0603,-5.97962 1.0931,0.9686 1.82655,2.06826 2.26444,3.45562 0.36657,1.56369 0.35513,3.18638 0.37486,4.78396 -0.0644,1.34511 0.007,2.62276 0.59869,3.84346 0.80528,1.43958 2.06959,2.46985 3.3054,3.51803 1.30686,1.02824 2.78406,1.78211 4.22557,2.5938 1.52382,0.7387 2.92791,1.67346 4.47595,2.36756 1.80096,0.87138 3.69291,1.54024 5.53356,2.32576 1.7216,0.73659 3.56098,1.06589 5.33834,1.62486 1.30503,0.32044 2.62416,0.46153 3.93298,0.76568 1.44857,0.44563 2.85476,0.21016 4.3191,0.044 1.72609,-0.5188 3.3875,-1.26622 5.06106,-1.94297 1.85321,-0.5775 3.5,-1.62466 5.23352,-2.46957 -15.50567,9.5624 -8.6827,4.94335 -5.18539,2.74313 1.35455,-0.79173 2.59093,-1.74219 3.80715,-2.72594 1.17081,-0.8761 1.89575,-2.07989 2.54086,-3.35975 0.64683,-1.33207 0.82179,-2.73733 0.71406,-4.19533 -0.20772,-1.65982 -1.1107,-3.03601 -1.94334,-4.43321 -0.8152,-1.43511 -1.92618,-2.66682 -2.99744,-3.91353 -0.89134,-1.15849 -1.86658,-2.25886 -2.91555,-3.27744 -0.74672,-1.00214 -1.85225,-1.60445 -2.7652,-2.42707 -0.90257,-0.78658 -1.77597,-1.6055 -2.68603,-2.39303 -0.95834,-0.9109 -1.81679,-1.92588 -2.79095,-2.81846 -0.88358,-0.87249 -1.14004,-1.87918 -0.53217,-2.97451 7.04593,-4.64931 7.64774,-5.47307 13.55075,-6.48318 1.70196,-0.33968 3.26295,-0.93204 4.84134,-1.62385 1.68072,-0.80642 3.31058,-1.70679 4.99625,-2.50565 1.68502,-0.58994 3.32942,-1.27704 4.99098,-1.9273 3.177,-1.84748 7.74997,-4.3922 -7.23115,4.15875 -0.21401,0.12216 0.42219,-0.25436 0.62972,-0.38722 0.2104,-0.13471 0.41591,-0.27692 0.62386,-0.41537 0.2178,-0.13944 0.43559,-0.27887 0.65339,-0.4183 1.39965,-0.85722 2.59259,-1.94701 3.5219,-3.29657 0.82403,-1.23542 1.28092,-2.59954 1.52244,-4.05138 0.0385,-1.40222 -0.24696,-2.79177 -0.38661,-4.18488 -0.21545,-1.22382 -0.58248,-2.41086 -1.06131,-3.55562 -0.53047,-1.52857 -1.49471,-2.80265 -2.52068,-4.02811 -1.17176,-1.42 -2.65536,-2.47799 -4.21533,-3.42122 -1.9694,-1.16929 -3.93088,-2.33275 -5.95437,-3.40473 -1.88883,-1.08321 -3.87577,-2.00627 -5.90906,-2.78597 -2.09673,-0.82376 -4.14412,-1.76405 -6.22509,-2.62685 -1.75536,-1.0297 -3.73372,-1.33068 -5.67449,-1.79324 -2.03022,-0.39585 -4.08071,-0.73572 -6.07857,-1.27719 -1.67562,-0.367 -3.32459,-0.81039 -4.99304,-1.20688 -1.671,-0.33115 -3.38699,-0.33911 -5.08447,-0.36835 -1.74865,-0.0204 -3.49741,-0.0118 -5.2461,-0.005 -1.50143,0.006 -3.00287,0.008 -4.50431,0.009 -1.61188,-0.13652 -3.16724,0.1396 -4.75019,0.38391 -1.07453,0.33132 -0.4388,0.0742 -1.37836,0.59385 -0.20346,0.11252 -0.81839,0.44154 -0.61677,0.32575 18.01106,-10.34392 9.94037,-6.60281 7.75491,-4.16463 -0.26568,0.49444 -0.65866,0.94034 0.006,1.17799 0,0 -8.98574,5.68891 -8.98574,5.68891 l 0,0 c -0.8268,-0.78071 -1.19644,-1.44702 -0.74978,-2.57345 1.99708,-4.5141 7.86116,-6.22069 12.45529,-7.40887 1.61227,-0.23499 3.22308,-0.3212 4.85325,-0.26439 1.49748,-6.3e-4 2.99496,-0.002 4.49245,-0.002 1.75157,3.5e-4 3.50355,-0.006 5.25474,0.0346 1.75362,0.0587 3.52847,0.10362 5.23592,0.54829 1.64988,0.43756 3.31422,0.79821 4.96646,1.22606 2.01175,0.46807 4.04034,0.85733 6.06635,1.25698 1.9976,0.43731 3.9448,0.9881 5.76136,1.9581 2.06502,0.88967 4.13103,1.77772 6.22306,2.60204 2.04097,0.84418 4.0441,1.78641 5.95776,2.89217 2.03958,1.08822 4.01147,2.28783 6.01299,3.444 1.64144,1.02009 3.16437,2.21145 4.40298,3.70967 1.08609,1.30392 2.12028,2.66298 2.70055,4.27834 0.54639,1.23783 0.94441,2.52267 1.21786,3.84863 0.12866,1.47379 0.3834,2.93074 0.4975,4.40521 -0.1793,1.55815 -0.50641,3.08625 -1.35144,4.43589 -0.782,1.52475 -1.91137,2.778 -3.33592,3.74024 -4.1115,2.78093 -8.36446,5.42853 -12.89194,7.47661 -1.63804,0.67296 -3.32595,1.22229 -4.93074,1.97352 -1.67848,0.82982 -3.31622,1.7458 -5.04059,2.47991 -1.59908,0.6734 -3.27905,1.07421 -4.97344,1.43599 -4.99113,1.06131 -9.1582,3.774 4.73113,-3.99664 -0.93355,0.46922 -1.03461,0.68571 -0.24244,1.48983 0.92197,0.91771 1.79085,1.88735 2.74112,2.77732 0.92413,0.77663 1.79063,1.60882 2.71052,2.38739 0.96099,0.79438 1.99939,1.50753 2.78193,2.49455 1.05842,1.0495 2.03731,2.18427 2.9493,3.3624 1.10986,1.29199 2.23387,2.58908 3.08764,4.06996 0.91939,1.52808 1.85381,3.05724 2.17114,4.84789 0.17966,1.61042 0.1606,3.15727 -0.45816,4.68992 -0.58605,1.39142 -1.24978,2.73767 -2.35056,3.80169 -1.22307,1.01197 -2.42172,2.02426 -3.76338,2.87962 -4.37474,2.44301 -7.91565,6.42652 -12.97673,7.68817 -1.71346,0.89284 -3.44211,1.75779 -5.27394,2.38649 -1.71227,0.68195 -3.41013,1.5107 -5.25995,1.7258 -1.53967,0.14877 -3.03316,0.12077 -4.53448,-0.31214 -1.32781,-0.2826 -2.69555,-0.37976 -3.98224,-0.84308 -1.78682,-0.56488 -3.63572,-0.93813 -5.3457,-1.73351 -1.87012,-0.75866 -3.76792,-1.46047 -5.58206,-2.3484 -1.54189,-0.7503 -2.99673,-1.65212 -4.52801,-2.42294 -1.50293,-0.82815 -2.99706,-1.6823 -4.329,-2.77416 -1.34223,-1.14209 -2.66017,-2.32291 -3.54868,-3.87181 -0.69147,-1.35638 -0.93192,-2.75132 -0.81474,-4.27518 -0.005,-1.50488 0.0176,-3.02661 -0.25476,-4.51201 -0.31149,-1.14857 -0.89717,-2.0552 -1.86701,-2.77343 -0.1427,-0.0595 -0.276,-0.15073 -0.42809,-0.17841 -0.12322,-0.0224 -0.48174,0.0968 -0.37434,0.0324 2.87335,-1.72326 5.83144,-3.30258 8.70362,-5.02778 0.15659,-0.0941 -0.37282,0.0359 -0.53451,0.12092 -0.358,0.1882 -0.58808,0.6063 -0.80405,0.91686 -0.52741,1.1108 -1.27689,2.11897 -2.11722,3.01007 -0.57407,0.88272 -1.22757,1.66224 -2.14386,2.19654 -3.22846,1.88254 -6.4585,3.76236 -9.68775,5.64355 20.22711,-11.71302 1.24699,-0.71691 -1.35546,0.76682 -2.81773,1.60647 11.26739,-6.43073 8.42325,-4.87152 -3.76015,2.06138 -7.21288,4.38716 -11.02095,6.22754 -1.50626,0.80459 -3.09746,1.45305 -4.73177,1.9485 -1.45277,0.29867 -2.90792,0.50009 -4.39656,0.41201 -1.69297,4.3e-4 -3.38642,-0.002 -5.07843,-0.0661 -2.16279,-0.0975 -4.3512,-0.20375 -6.44281,-0.81057 -1.46483,-0.51296 -2.87837,-1.0816 -3.97236,-2.232 -1.11836,-1.38731 -1.65406,-3.03056 -1.8277,-4.80108 -0.20679,-1.92276 -0.0524,-3.85943 8.9e-4,-5.78872 0.0888,-1.71463 0.33887,-3.40943 0.70915,-5.08661 0.1795,-1.66063 0.52277,-3.28788 1.1163,-4.85464 0.44813,-1.80258 0.99786,-3.59501 1.77676,-5.2839 0.67188,-1.46695 1.43502,-2.89325 2.18897,-4.31864 0.74464,-1.48609 1.61549,-2.92352 2.6503,-4.22558 0.8955,-1.17093 1.82318,-2.37658 3.14095,-3.09815 3.73524,-2.88654 8.03441,-4.97755 12.27351,-7.02667 1.21573,-0.42945 2.46985,-0.79438 3.77161,-0.78731 1.40634,0.008 2.81321,0.0274 4.21925,-0.0109 4.59536,-0.23945 4.43387,-2.73428 -6.75291,5.25799 -0.27718,0.19803 0.65151,0.54509 0.19373,0.36165 -1.33196,-0.4963 -2.73676,-0.70529 -4.10527,-1.07669 -1.96944,-0.443 -3.94826,-0.85177 -5.87402,-1.46834 -1.42953,-0.51578 -2.86653,-1.02291 -4.26017,-1.62916 -1.29379,-0.59058 -2.54734,-1.26397 -3.79585,-1.94365 -1.26588,-0.70819 -2.62786,-1.26592 -3.76253,-2.18856 -1.37635,-1.08572 -2.74466,-2.17394 -3.8531,-3.5491 -0.96195,-1.06063 -1.97278,-2.07469 -2.71955,-3.30769 -0.67269,-1.23448 -1.28459,-2.49342 -1.66647,-3.85373 -0.27437,-1.34999 -0.48453,-2.67251 -0.36907,-4.0595 -0.003,-1.43268 -0.008,-2.86536 -0.006,-4.29804 0.008,-1.44805 0.0129,-2.8998 0.17075,-4.34103 0.18107,-1.3407 0.52613,-2.61575 0.97904,-3.88635 0.39001,-0.99786 1.0775,-2.06708 1.968,-2.67248 3.82422,-2.24457 8.16558,-6.00808 12.99659,-6.58909 1.73026,-0.0767 3.46377,-0.0291 5.19537,-0.0556 1.52302,-0.001 3.04728,-0.006 4.56846,0.08 1.70655,0.12269 3.41203,0.32069 5.01421,0.96313 1.8177,0.67179 3.68831,1.19711 5.46998,1.96031 1.69878,0.8895 3.29984,1.94236 4.79494,3.14557 1.83468,1.48662 3.71755,2.89252 5.71896,4.15035 2.22262,1.49671 4.35234,3.1301 6.63649,4.53318 0,0 -8.91451,5.74489 -8.91451,5.74489 z"
       inkscape:connector-curvature="0"
       inkscape:export-filename="/home/andrew/Desktop/jellyfish.png"
       inkscape:export-xdpi="90"
       inkscape:export-ydpi="90" />
    <path
       style="fill:#1a1a1a"
       id="path3001"
       d="m 290.83747,345.42573 c -1.53299,2.08167 -3.07743,4.16008 -4.77549,6.15815 -1.44432,1.57711 -2.9705,3.09289 -4.23059,4.77204 -0.99757,1.5488 -2.24239,2.96442 -3.60267,4.3178 -1.11992,1.08124 -2.19754,2.19451 -2.912,3.48477 -0.50537,1.09866 -1.05095,2.18289 -1.71366,3.22682 -0.61471,0.95649 -1.04304,1.97789 -1.5906,2.95746 -0.71474,1.29357 -1.39871,2.59639 -2.151,3.87667 -0.68147,1.09889 -1.16892,2.26536 -1.70158,3.41402 -0.56048,1.00619 -0.88241,2.06077 -1.17751,3.13125 -0.45371,1.20301 -0.63596,2.44455 -0.745,3.69328 -0.012,1.24614 -0.12103,2.47276 -0.37215,3.70194 -0.28998,1.29204 -0.36115,2.60397 -0.40661,3.91338 -0.13367,1.21627 -0.37145,2.4288 -0.63797,3.63115 -0.38595,1.26943 -0.90169,2.50437 -1.21005,3.78942 -0.17014,1.22258 -0.41272,2.43269 -0.7687,3.62961 -0.46153,1.11991 -0.72571,2.27038 -0.87046,3.44117 -0.12672,1.43806 -0.1157,2.88109 -0.11391,4.3219 -0.1149,1.29978 -0.4231,2.57932 -0.56682,3.87769 -0.12001,1.40587 -0.13128,2.81564 -0.13853,4.22418 -0.002,1.18141 0.002,2.36282 0.004,3.54423 -0.0102,1.30256 -0.004,2.60516 -0.002,3.90772 -0.003,1.16703 -0.0535,2.32759 0.16685,3.48356 0.17122,1.18154 0.7848,2.26795 1.26292,3.3806 0.62316,0.93378 0.91972,1.96957 1.46142,2.9287 0.59908,1.11691 1.201,2.23261 1.81042,3.34619 0.66868,1.13963 1.26693,2.29675 1.96492,3.42554 0.63725,1.07288 1.48635,2.04577 2.22585,3.07184 0.68391,0.98947 1.3088,1.98611 2.0462,2.95151 0.80405,1.04781 1.61076,2.09373 2.42876,3.13507 0.84863,1.08642 1.49086,2.26818 2.32674,3.35854 0.78043,0.98045 1.77316,1.81908 2.71961,2.69224 1.015,0.87603 2.12973,1.67422 3.14225,2.55074 0.90903,0.82036 1.93708,1.5395 3.04632,2.17799 1.31089,1.01082 2.87419,1.742 4.31968,2.61183 1.44935,0.77829 2.87574,1.59701 4.21886,2.48945 1.39338,0.80694 2.6747,1.72234 4.02802,2.57102 1.66972,1.09281 3.34637,2.18035 5.06841,3.21992 1.61322,1.22056 3.55251,2.07905 5.38274,3.0604 1.85586,1.05798 3.75872,2.06447 5.73477,2.97201 1.78368,0.90389 3.60821,1.74994 5.4269,2.60638 1.42387,0.73212 2.87112,1.4436 4.3833,2.05276 1.4098,0.59823 2.81861,1.20501 4.26574,1.74418 1.61759,0.37843 3.21955,0.81033 4.83521,1.20013 2.41917,0.70218 4.87897,1.30551 7.27936,2.05065 2.39798,0.7129 4.79995,1.40392 7.26365,1.95676 2.0343,0.43664 4.06366,0.82593 6.1582,1.01516 1.66575,0.12926 3.34041,0.13559 5.01226,0.13769 1.48844,0.12296 2.9032,-0.15334 4.36091,-0.31755 2.02948,-0.20482 4.08048,-0.21357 6.12284,-0.24495 2.15117,0.0293 4.27675,-0.0237 6.41368,-0.21062 2.42036,-0.22148 4.81249,-0.5862 7.23804,-0.79107 2.19135,-0.25625 4.35196,-0.6276 6.5271,-0.95551 1.86112,-0.40849 3.7584,-0.90933 5.41154,-1.72271 1.29778,-0.51146 2.58455,-1.04974 3.91239,-1.5112 3.79086,-1.16186 11.03655,-4.83484 -4.9067,2.51615 4.5871,-2.27203 9.22205,-4.48541 13.97887,-6.52288 0.33529,-0.14081 0.67004,-0.28246 1.00588,-0.42243 2.19559,-0.91507 -0.0213,-0.002 2.19132,-0.85566 0.34992,-0.135 1.37539,-0.57796 1.0397,-0.42138 -11.5406,5.38301 -10.53063,4.89837 -7.36706,3.35599 3.86333,-2.00429 7.92618,-3.73801 11.89687,-5.60267 0.54721,-0.25698 -25.52716,11.8202 1.45757,-0.67761 -15.88743,7.64671 -7.45732,3.38943 -3.83449,1.56121 1.55008,-0.66101 2.87111,-1.56072 4.21952,-2.44661 1.43409,-0.87049 2.99225,-1.60873 4.52292,-2.36574 1.37351,-0.73768 2.66558,-1.56822 3.90908,-2.44074 1.38421,-0.97168 2.89364,-1.81755 4.28539,-2.78168 1.54994,-1.04074 2.90956,-2.22827 4.291,-3.406 1.43673,-1.25243 2.91272,-2.46198 4.21864,-3.80557 1.29496,-1.25273 2.34567,-2.64317 3.43556,-4.0102 0.89136,-1.21975 1.90995,-2.37365 2.85506,-3.56515 0.61502,-0.94028 1.05522,-1.95258 1.50251,-2.95152 0.69942,-1.1656 1.27596,-2.37424 1.78756,-3.60065 0.57505,-1.28623 1.06197,-2.59642 1.50679,-3.91525 0.36314,-1.2054 0.73111,-2.4095 1.10051,-3.61361 0.41286,-1.11117 0.90105,-2.20245 1.39677,-3.29112 0.4572,-1.19534 0.9252,-2.39298 1.27766,-3.6119 0.35706,-1.30504 0.31536,-2.64594 0.44653,-3.97021 0.27803,-1.4289 0.46508,-2.86427 0.56778,-4.30775 0.0666,-1.45183 0.0578,-2.89761 0.27032,-4.34176 0.37574,-1.50338 0.73358,-3.01236 1.21304,-4.4972 0.41312,-1.14394 0.59316,-2.32226 0.68698,-3.50685 0.0418,-1.18058 0.31729,-2.35043 0.60762,-3.50583 0.39645,-1.1063 0.6412,-2.234 0.77243,-3.37864 0.10776,-1.45431 0.42037,-2.89148 0.61009,-4.33959 0.14302,-1.35044 0.2513,-2.70768 0.15336,-4.06179 -0.22919,-1.50831 -0.43343,-3.0181 -0.55802,-4.53444 -0.0297,-1.21627 -0.34726,-2.40802 -0.76029,-3.57288 -0.35322,-1.1492 -0.6622,-2.30578 -0.99601,-3.4593 -0.36127,-1.17191 -0.98343,-2.26892 -1.58789,-3.36842 -0.52704,-1.21132 -1.19899,-2.35967 -1.98569,-3.4737 -0.84425,-1.31434 -1.61407,-2.67879 -2.63244,-3.91376 -1.06392,-1.28983 -2.1501,-2.56532 -3.34664,-3.77858 -1.11069,-1.19054 -2.13933,-2.43079 -3.12251,-3.69127 -0.7405,-1.18066 -1.59756,-2.30967 -2.36673,-3.4778 -0.694,-1.03735 -1.43901,-2.04496 -2.10697,-3.09351 -0.71333,-1.02262 -1.44195,-2.03366 -2.20841,-3.03038 -0.85782,-1.01904 -1.69077,-2.05029 -2.63152,-3.02221 -1.22026,-1.16094 -2.54841,-2.26548 -3.96307,-3.27558 -1.22636,-1.02784 -2.51716,-2.00056 -3.74445,-3.0274 -1.32484,-1.0297 -2.79963,-1.9184 -4.27121,-2.80591 -1.30721,-0.87938 -2.7123,-1.65266 -4.03328,-2.51864 -1.3601,-0.96302 -2.7485,-1.90869 -4.24346,-2.7351 -1.44138,-0.61219 -2.80292,-1.33303 -4.2545,-1.92972 -1.35829,-0.62004 -2.7247,-1.21658 -4.23629,-1.55165 -1.57185,-0.29114 -3.13772,-0.59757 -4.69704,-0.9355 -1.47056,-0.31819 -2.98851,-0.4073 -4.5034,-0.45392 -1.46912,0.0256 -2.89077,-0.0231 -4.33255,-0.23951 -1.62255,-0.26046 -3.21109,-0.65352 -4.81484,-0.98634 -1.64052,-0.50823 -3.33813,-0.8329 -5.08124,-0.99436 -1.50995,-0.23873 -2.9168,-0.73059 -4.41796,-0.99734 -1.65282,-0.32796 -3.2734,-0.76131 -4.93744,-1.05018 -1.79502,-0.25456 -3.57065,-0.56562 -5.30693,-1.00919 -1.50653,-0.27078 -2.95774,-0.67983 -4.42387,-1.06386 -1.7129,-0.47541 -3.42718,-0.96684 -5.1767,-1.35062 -1.50582,-0.33384 -3.0775,-0.25342 -4.60279,-0.46269 -1.92037,-0.27026 -3.86657,-0.36932 -5.81172,-0.43116 -1.78901,-0.0466 -3.57913,-0.0387 -5.36879,-0.0422 -1.7099,0.002 -3.41978,0.003 -5.12968,0.003 -1.53489,0.29637 -3.18005,0.23449 -4.67978,0.62302 -1.27409,0.19377 -2.37201,0.67066 -3.50356,1.14018 -1.27359,0.40313 -2.45575,0.95227 -3.76022,1.29698 -0.51877,0.33808 -1.19269,0.42247 -1.7756,0.64325 -0.54137,0.20505 -0.97205,0.44316 -1.55165,0.6003 -0.53402,0.30985 -1.20466,0.36021 -1.79452,0.55259 -0.18959,0.0618 -0.71498,0.31994 -0.5373,0.23843 9.20914,-4.22477 11.36284,-5.25573 8.00061,-3.65197 -4.16026,2.28201 -8.49311,4.20695 -13.09568,5.7569 -1.69713,0.4118 -3.22178,1.11709 -4.78509,1.76402 -1.44233,0.65276 -2.88482,1.31695 -4.38563,1.88069 -0.235,0.10505 -0.46512,0.21747 -0.705,0.31514 -0.47606,0.19382 -0.9528,0.38654 -1.42979,0.57886 -0.23751,0.0958 -0.95544,0.37249 -0.7258,0.26505 2.81041,-1.31494 11.2336,-5.26818 8.47133,-3.88901 -3.16378,1.57963 -6.45104,2.99384 -9.67656,4.49076 -3.31457,1.15248 -7.89618,3.47813 7.25411,-3.43975 0.20164,-0.0921 -0.39707,0.19329 -0.58634,0.30098 -0.37209,0.2117 -0.72132,0.44826 -1.08695,0.6671 -4.30306,1.93464 -8.44124,4.26173 -12.96322,5.90027 -7.83783,3.74124 30.47402,-14.24217 -2.09488,0.97547 -2.77833,1.29816 11.15278,-5.13763 8.356,-3.86531 -3.27441,1.48961 -6.53206,3.0029 -9.78889,4.51717 -2.80805,1.3056 5.62835,-2.59412 8.44252,-3.89118 -1.17218,0.5062 -2.13752,1.24264 -3.23151,1.83733 -1.0485,0.62304 -1.94351,1.39862 -2.73417,2.22763 -0.73878,0.83353 -1.3597,1.72707 -2.04687,2.5868 -0.58324,0.81741 -1.55863,1.41037 -2.1733,2.20104 -0.0382,-0.025 -0.0765,-0.0499 -0.11468,-0.0749 0,0 -9.56877,3.83456 -9.56877,3.83456 l 0,0 c -0.0297,-0.10583 -0.0595,-0.21167 -0.0892,-0.31751 0.16962,-0.19956 0.28064,-0.42869 0.45057,-0.62809 0.50563,-0.59327 1.34453,-0.97117 1.73829,-1.64209 0.84784,-0.7583 1.26481,-1.73644 2.07637,-2.52021 0.63543,-0.96537 1.61489,-1.74806 2.5842,-2.5043 1.03771,-0.71269 -0.14315,0.0553 1.01047,-0.56115 0.77127,-0.4121 1.31499,-1.0643 2.21111,-1.34245 3.23405,-1.5164 6.50572,-2.98217 9.70214,-4.54918 2.74902,-1.34767 -11.14722,5.18662 -8.35964,3.89104 27.3038,-12.68994 0.45584,-0.22446 1.42357,-0.66594 3.2761,-1.49454 6.51836,-3.0365 9.78897,-4.53877 0.23009,-0.10569 0.4746,-0.18969 0.71191,-0.28453 0.67287,-0.28012 1.34713,-0.55596 2.01042,-0.85056 0.21541,-0.0957 0.85781,-0.38816 0.64518,-0.28855 -8.97781,4.20587 -11.19707,5.35545 -7.88448,3.65352 0.56877,-0.25672 0.62152,-0.25186 1.12726,-0.59865 0.18707,-0.12828 0.32514,-0.30591 0.53655,-0.4069 3.71698,-1.77557 7.18716,-3.42945 10.90898,-4.98996 -18.96693,8.80917 -2.11042,0.77256 4.09376,-1.71331 1.46173,-0.62036 2.91827,-1.24805 4.3655,-1.89002 1.56125,-0.66627 3.192,-1.1984 4.83899,-1.71254 0.71174,-0.24779 1.4272,-0.49704 2.11992,-0.77825 0.20837,-0.0846 0.81753,-0.36248 0.61587,-0.26798 -8.94567,4.19188 -11.13877,5.39746 -7.87626,3.62705 4.16903,-1.9021 8.11903,-4.11927 12.60514,-5.4867 1.09397,-0.4323 2.20088,-0.84251 3.32928,-1.21432 1.2478,-0.43264 2.47065,-0.91302 3.70054,-1.37693 1.15512,-0.4642 2.39772,-0.74697 3.65614,-0.97139 1.59348,-0.18669 3.19183,-0.39297 4.80083,-0.45598 1.71084,-0.002 3.42168,-0.006 5.13253,-0.003 1.79422,5.5e-4 3.58886,0.0171 5.38147,0.0824 1.96988,0.0851 3.93202,0.23796 5.88231,0.47996 1.57839,0.1177 3.17349,0.17349 4.69585,0.5687 1.74049,0.43507 3.46797,0.90468 5.1943,1.37445 1.46182,0.38727 2.94542,0.70892 4.4245,1.04923 1.71936,0.42417 3.49339,0.66614 5.25089,0.96618 1.65709,0.3387 3.29929,0.72373 4.96128,1.0487 1.44808,0.31778 2.85281,0.77093 4.35036,0.92869 1.75454,0.23452 3.44623,0.64293 5.13542,1.0857 1.58069,0.34083 3.16534,0.69167 4.78108,0.90657 1.41531,0.15938 2.84112,0.0944 4.2655,0.16488 1.5601,0.0885 3.11175,0.25166 4.61713,0.60676 1.57257,0.33937 3.17102,0.5935 4.7349,0.96057 1.51873,0.4349 2.92768,1.05797 4.33626,1.68364 1.46111,0.64637 2.89805,1.32889 4.32157,2.02673 1.47856,0.87238 2.89107,1.81135 4.27478,2.77827 1.32833,0.84517 2.71533,1.62823 4.02577,2.49195 1.50465,0.91868 2.97956,1.87434 4.34502,2.92525 1.21959,1.00844 2.49968,1.96616 3.70928,2.98275 1.42354,1.07371 2.81992,2.18467 4.06384,3.3944 0.96612,0.99637 1.83219,2.04863 2.71234,3.09404 0.77162,1.0187 1.50579,2.05219 2.24776,3.08529 0.67326,1.04271 1.38585,2.06356 2.08815,3.09398 0.74988,1.15282 1.60846,2.25753 2.32159,3.42621 0.95628,1.23652 1.96262,2.45076 3.0415,3.62055 1.20976,1.23468 2.33349,2.5205 3.41004,3.83214 1.02688,1.25237 1.79683,2.63159 2.66024,3.95931 0.8289,1.13102 1.53632,2.30092 2.06023,3.54721 0.62692,1.1502 1.28838,2.28988 1.69144,3.50842 0.31495,1.14199 0.66346,2.27442 0.96514,3.41819 0.43934,1.21989 0.82996,2.46759 0.85754,3.74476 0.0954,1.51357 0.26614,3.0223 0.53391,4.52296 0.17685,1.39553 0.0881,2.7985 -0.0546,4.19511 -0.17595,1.44137 -0.50927,2.87013 -0.60156,4.31513 -0.0987,1.18219 -0.26879,2.36191 -0.70095,3.49999 -0.38543,1.08512 -0.57459,2.24566 -0.69141,3.36531 -0.0684,1.23576 -0.19606,2.47297 -0.60685,3.67082 -0.49393,1.45557 -0.86537,2.92873 -1.28566,4.39987 -0.24413,1.42535 -0.27824,2.84475 -0.29678,4.2831 -0.0932,1.45698 -0.22615,2.91371 -0.53746,4.3528 -0.2555,1.33662 -0.062,2.70295 -0.3892,4.03703 -0.30252,1.26392 -0.82497,2.47546 -1.22635,3.71929 -0.47123,1.08438 -0.97424,2.15282 -1.39734,3.24908 -0.53926,1.14595 -0.70438,2.41322 -1.14397,3.58704 -0.40869,1.33567 -0.88106,2.66555 -1.47951,3.95317 -0.45394,1.24319 -0.99656,2.49833 -1.73326,3.64728 -0.54153,1.00919 -0.92377,2.06831 -1.45453,3.08135 -0.85121,1.25265 -2.02711,2.33725 -2.84586,3.6102 -1.15259,1.35496 -2.11417,2.8148 -3.43602,4.07568 -1.29068,1.37217 -2.67032,2.64505 -4.15205,3.88362 -1.4142,1.16505 -2.68924,2.42372 -4.25712,3.46303 -1.34221,1.01003 -2.80665,1.89088 -4.27584,2.77882 -1.23049,0.91364 -2.52249,1.75733 -3.84701,2.57942 -1.50764,0.76939 -3.02635,1.52175 -4.55633,2.26163 -1.36485,0.89204 -2.6126,1.90589 -4.20599,2.54169 -4.60227,2.47665 -9.53508,4.55774 -14.25292,6.87497 27.93452,-12.95798 -21.30708,9.8042 6.90566,-3.22862 2.31495,-1.06939 -4.38255,1.97958 -2.14907,1.09198 -4.89684,2.39737 -9.86187,4.66845 -14.98127,6.73056 -3.45109,1.49218 -3.44475,1.50046 7.18723,-3.39908 0.28627,-0.13193 -0.54601,0.29806 -0.82456,0.44024 -0.73052,0.37287 -1.47043,0.73723 -2.22278,1.08078 -4.40044,2.05552 -8.5783,4.34108 -13.28665,5.86758 -1.29183,0.50904 -2.6048,0.98459 -3.86632,1.54197 -1.79156,0.65229 -3.64031,1.22165 -5.58249,1.50795 -2.18139,0.34146 -4.36503,0.67222 -6.57076,0.89852 -2.41882,0.22704 -4.81138,0.59892 -7.23682,0.78038 -2.15433,0.16271 -4.31101,0.14203 -6.47321,0.16164 -2.0286,0.0378 -4.06397,0.0849 -6.07019,0.35139 -1.48339,0.19639 -2.96186,0.27227 -4.46673,0.21185 -1.68997,-0.0186 -3.38269,-0.0577 -5.06022,-0.23729 -2.11397,-0.24951 -4.17619,-0.67586 -6.23469,-1.13213 -2.45914,-0.59919 -4.86774,-1.30373 -7.27205,-2.03112 -2.41147,-0.71288 -4.86975,-1.31851 -7.30574,-1.97428 -1.64939,-0.42196 -3.33915,-0.76293 -4.93769,-1.296 -1.43843,-0.57298 -2.87155,-1.15563 -4.28387,-1.76919 -1.49842,-0.65339 -2.96032,-1.35761 -4.39843,-2.09323 -1.81511,-0.8503 -3.59142,-1.75 -5.39164,-2.61993 -1.98239,-0.93131 -3.90353,-1.9473 -5.78097,-3.00931 -1.85532,-0.9794 -3.76862,-1.89227 -5.41045,-3.10759 -1.72439,-1.0477 -3.41391,-2.1319 -5.09672,-3.22206 -1.36076,-0.852 -2.68291,-1.742 -4.06187,-2.57529 -1.3482,-0.86814 -2.75233,-1.6785 -4.17777,-2.46276 -1.45712,-0.85308 -2.98191,-1.62826 -4.33077,-2.5967 -1.15252,-0.6781 -2.21238,-1.45538 -3.17054,-2.30712 -1.03232,-0.87386 -2.11224,-1.71111 -3.14836,-2.58226 -0.99221,-0.90648 -2.00885,-1.79441 -2.81492,-2.81958 -0.81318,-1.0953 -1.4713,-2.26173 -2.30635,-3.34845 -0.82443,-1.04291 -1.63841,-2.09006 -2.45239,-3.13768 -0.74342,-0.97254 -1.36488,-1.97784 -2.05774,-2.97211 -0.74897,-1.04229 -1.59832,-2.03683 -2.24842,-3.12447 -0.70287,-1.14253 -1.32268,-2.3054 -1.99259,-3.45975 -0.60037,-1.10903 -1.21749,-2.21175 -1.80499,-3.32494 -0.5837,-0.98168 -0.88287,-2.04462 -1.51363,-3.01257 -0.47907,-1.1597 -1.153,-2.27813 -1.34861,-3.50211 -0.26082,-1.19982 -0.29199,-2.39108 -0.24015,-3.6091 0.002,-1.30128 0.008,-2.6026 -0.006,-3.90386 -10e-4,-1.18433 -0.004,-2.36866 0.003,-3.55298 0.0113,-1.42739 0.0328,-2.85513 0.12251,-4.28098 0.0882,-1.2856 0.3038,-2.55236 0.58906,-3.81928 0.005,-1.45957 0.0141,-2.91938 0.0741,-4.37829 0.0848,-1.21728 0.28151,-2.4282 0.77358,-3.588 0.4632,-1.15009 0.67673,-2.35754 0.82082,-3.55752 0.25997,-1.3019 0.70722,-2.5563 1.17909,-3.81636 0.37656,-1.14036 0.42963,-2.34274 0.75583,-3.49536 0.0312,-1.33941 0.0446,-2.68555 0.31593,-4.01098 0.25109,-1.20808 0.49248,-2.39599 0.43012,-3.62854 0.0888,-1.28708 0.18854,-2.58596 0.64536,-3.82928 0.37909,-1.06307 0.45517,-2.19958 1.13263,-3.19081 0.46573,-1.20058 1.09924,-2.36185 1.6818,-3.52751 0.79649,-1.24736 1.46438,-2.53777 2.12731,-3.83273 0.54797,-0.99333 1.05496,-1.99223 1.57674,-2.99675 0.64307,-1.03673 1.31631,-2.04871 1.76828,-3.15483 0.58718,-1.40594 1.60917,-2.61831 2.81431,-3.73691 1.33482,-1.33988 2.73309,-2.6379 3.66954,-4.1987 1.19925,-1.74426 2.69823,-3.29654 4.22575,-4.8614 1.78492,-1.90764 3.27244,-3.98655 4.76347,-6.04788 0,0 9.67221,-3.47395 9.67221,-3.47395 z"
       inkscape:connector-curvature="0"
       inkscape:export-filename="/home/andrew/Desktop/jellyfish.png"
       inkscape:export-xdpi="90"
       inkscape:export-ydpi="90" />
  </g>
</svg>
